<svg width="28" height="28" viewBox="0 0 28 28" fill="none" xmlns="http://www.w3.org/2000/svg">
<path d="M13.9997 25.6663C11.9386 25.6663 10.2566 25.3408 8.95384 24.6898C7.65106 24.0388 6.99967 23.1977 6.99967 22.1663C6.99967 21.7969 7.08251 21.4566 7.24817 21.1455C7.41384 20.8344 7.66156 20.5427 7.99134 20.2705C8.26356 20.0761 8.56029 19.9983 8.88151 20.0372C9.20273 20.0761 9.46017 20.2316 9.65384 20.5038C9.84751 20.7761 9.92062 21.0728 9.87318 21.394C9.82573 21.7152 9.66512 21.9727 9.39134 22.1663C9.64412 22.4775 10.2275 22.7497 11.1413 22.983C12.0552 23.2163 13.008 23.333 13.9997 23.333C14.9913 23.333 15.9441 23.2163 16.858 22.983C17.7719 22.7497 18.3552 22.4775 18.608 22.1663C18.3358 21.9719 18.1752 21.7141 18.1262 21.3928C18.0772 21.0716 18.1503 20.7753 18.3455 20.5038C18.5407 20.2324 18.7986 20.0768 19.119 20.0372C19.4395 19.9975 19.7358 20.0753 20.008 20.2705C20.3386 20.5427 20.5867 20.8344 20.7523 21.1455C20.918 21.4566 21.0005 21.7969 20.9997 22.1663C20.9997 23.1969 20.3483 24.0381 19.0455 24.6898C17.7427 25.3416 16.0608 25.6671 13.9997 25.6663ZM13.9997 21.6122C13.7663 21.6122 13.533 21.5733 13.2997 21.4955C13.0663 21.4177 12.8525 21.3011 12.658 21.1455C10.3636 19.3177 8.65245 17.5335 7.52467 15.7928C6.3969 14.0522 5.83301 12.3461 5.83301 10.6747C5.83301 9.29412 6.08112 8.08351 6.57734 7.04284C7.07356 6.00218 7.71017 5.13223 8.48717 4.43301C9.26417 3.73379 10.1392 3.20879 11.1122 2.85801C12.0852 2.50723 13.0477 2.33223 13.9997 2.33301C14.9517 2.33379 15.9142 2.50879 16.8872 2.85801C17.8602 3.20723 18.7352 3.73223 19.5122 4.43301C20.2892 5.13379 20.9262 6.00412 21.4232 7.04401C21.9202 8.0839 22.1679 9.29412 22.1663 10.6747C22.1663 12.3469 21.6025 14.0533 20.4747 15.794C19.3469 17.5347 17.6358 19.3185 15.3413 21.1455C15.1469 21.3011 14.933 21.4177 14.6997 21.4955C14.4663 21.5733 14.233 21.6122 13.9997 21.6122ZM13.9997 12.833C14.6413 12.833 15.1908 12.6047 15.6482 12.1482C16.1055 11.6916 16.3338 11.1421 16.333 10.4997C16.3322 9.85723 16.104 9.30812 15.6482 8.85234C15.1924 8.39657 14.6429 8.1679 13.9997 8.16634C13.3565 8.16479 12.8073 8.39345 12.3523 8.85234C11.8973 9.31123 11.6687 9.86034 11.6663 10.4997C11.664 11.139 11.8927 11.6885 12.3523 12.1482C12.812 12.6078 13.3611 12.8361 13.9997 12.833Z" fill="#C0BFBF"/>
</svg>
