<svg width="28" height="28" viewBox="0 0 28 28" fill="none" xmlns="http://www.w3.org/2000/svg">
<path d="M24.7915 13.9997C24.7933 15.4166 24.5155 16.8199 23.974 18.1292C23.4324 19.4385 22.6378 20.628 21.6357 21.6297C20.6331 22.6325 19.4426 23.4279 18.1324 23.9704C16.8222 24.5129 15.4179 24.7919 13.9998 24.7913C12.4736 24.7947 10.9642 24.4725 9.57234 23.8463L5.06084 24.5137C4.83684 24.5503 4.6073 24.5316 4.39215 24.4593C4.17701 24.387 3.98276 24.2633 3.82628 24.0989C3.66981 23.9345 3.55584 23.7344 3.49428 23.5159C3.43271 23.2974 3.42541 23.0673 3.47301 22.8453L4.09951 18.2685C3.50357 16.9247 3.19976 15.4697 3.20818 13.9997C3.20637 12.5828 3.48419 11.1795 4.02573 9.87018C4.56727 8.56088 5.36188 7.37131 6.36401 6.36968C7.36663 5.36683 8.55707 4.57142 9.86728 4.02892C11.1775 3.48642 12.5818 3.20747 13.9998 3.20801C16.8636 3.2082 19.61 4.3454 21.6357 6.36968C22.6373 7.3717 23.4316 8.56133 23.9731 9.87055C24.5146 11.1798 24.7927 12.5829 24.7915 13.9997Z" stroke="#C0BFBF" stroke-width="1.5" stroke-linecap="round" stroke-linejoin="round"/>
<path d="M19.9998 14.0008C20.0019 14.7894 19.8467 15.5705 19.5433 16.2985C19.2451 17.0278 18.8017 17.6891 18.2401 18.2422C17.6833 18.7995 17.0221 19.2418 16.2942 19.544C15.5654 19.847 14.7834 20.002 13.994 19.9999C13.1929 20.0037 12.3996 19.8423 11.6637 19.526L9.47159 19.85C9.28385 19.8808 9.0914 19.8653 8.91105 19.8047C8.73071 19.7442 8.56795 19.6404 8.43701 19.5025C8.30608 19.3646 8.21094 19.1968 8.15991 19.0137C8.10889 18.8306 8.10353 18.6378 8.14431 18.4522L8.4446 16.2625C8.1454 15.5462 7.99423 14.7769 8.00017 14.0008C7.99728 13.2141 8.1525 12.4349 8.45661 11.7092C8.75665 10.9805 9.19746 10.318 9.75387 9.75946C10.3116 9.20168 10.974 8.75919 11.7031 8.45729C12.4322 8.15539 13.2137 8 14.003 8C14.7922 8 15.5738 8.15539 16.3028 8.45729C17.0319 8.75919 17.6943 9.20168 18.2521 9.75946C18.8144 10.3143 19.2579 10.9777 19.5554 11.7092C19.8554 12.4357 20.0065 13.2149 19.9998 14.0008Z" fill="#C0BFBF"/>
</svg>
