<svg width="28" height="28" viewBox="0 0 28 28" fill="none" xmlns="http://www.w3.org/2000/svg">
<path d="M24.1618 4.26327C24.1618 4.26327 26.4281 3.37952 26.2385 5.5256C26.1761 6.40935 25.6097 9.50277 25.1687 12.8482L23.6578 22.759C23.6578 22.759 23.5318 24.2109 22.3984 24.4635C21.2656 24.7155 19.5658 23.5798 19.2508 23.3272C18.9988 23.1376 14.5293 20.2968 12.9554 18.9084C12.5144 18.5293 12.0104 17.7721 13.0184 16.8884L19.6288 10.5755C20.3842 9.81718 21.1396 8.04968 17.9919 10.1964L9.17776 16.193C9.17776 16.193 8.17034 16.8248 6.28209 16.2566L2.18942 14.9937C2.18942 14.9937 0.678588 14.0469 3.25984 13.1002C9.55576 10.1334 17.2995 7.10352 24.1613 4.26268" fill="#C0BFBF"/>
</svg>
