<svg width="28" height="28" viewBox="0 0 28 28" fill="none" xmlns="http://www.w3.org/2000/svg">
<path d="M11.2 18.2L12.8333 16.5083L10.325 14L12.8333 11.4916L11.2 9.79996L7 14L11.2 18.2ZM16.8 18.2L21 14L16.8 9.79996L15.1667 11.4916L17.675 14L15.1667 16.5083L16.8 18.2ZM3.5 24.5V3.49996H10.7333C10.9861 2.79996 11.4092 2.23607 12.0027 1.80829C12.5961 1.38051 13.2619 1.16663 14 1.16663C14.7381 1.16663 15.4043 1.38051 15.9985 1.80829C16.5927 2.23607 17.0154 2.79996 17.2667 3.49996H24.5V24.5H3.5ZM14 4.95829C14.2528 4.95829 14.462 4.87546 14.6277 4.70979C14.7933 4.54413 14.8758 4.33529 14.875 4.08329C14.8742 3.83129 14.7914 3.62246 14.6265 3.45679C14.4616 3.29113 14.2528 3.20829 14 3.20829C13.7472 3.20829 13.5384 3.29113 13.3735 3.45679C13.2086 3.62246 13.1258 3.83129 13.125 4.08329C13.1242 4.33529 13.2071 4.54452 13.3735 4.71096C13.5399 4.8774 13.7488 4.95985 14 4.95829Z" fill="#C0BFBF"/>
</svg>
