<svg width="28" height="28" viewBox="0 0 28 28" fill="none" xmlns="http://www.w3.org/2000/svg">
<path d="M21.0003 21.5833C20.5362 21.5833 20.0911 21.3989 19.7629 21.0707C19.4347 20.7425 19.2503 20.2974 19.2503 19.8333C19.2503 19.3692 19.4347 18.924 19.7629 18.5959C20.0911 18.2677 20.5362 18.0833 21.0003 18.0833C21.4645 18.0833 21.9096 18.2677 22.2378 18.5959C22.566 18.924 22.7503 19.3692 22.7503 19.8333C22.7503 20.2974 22.566 20.7425 22.2378 21.0707C21.9096 21.3989 21.4645 21.5833 21.0003 21.5833ZM22.7503 11.0833L25.037 14H19.8337V11.0833M7.00033 21.5833C6.5362 21.5833 6.09108 21.3989 5.76289 21.0707C5.4347 20.7425 5.25033 20.2974 5.25033 19.8333C5.25033 19.3692 5.4347 18.924 5.76289 18.5959C6.09108 18.2677 6.5362 18.0833 7.00033 18.0833C7.46445 18.0833 7.90957 18.2677 8.23776 18.5959C8.56595 18.924 8.75033 19.3692 8.75033 19.8333C8.75033 20.2974 8.56595 20.7425 8.23776 21.0707C7.90957 21.3989 7.46445 21.5833 7.00033 21.5833ZM23.3337 9.33329H19.8337V4.66663H3.50033C2.20533 4.66663 1.16699 5.70496 1.16699 6.99996V19.8333H3.50033C3.50033 20.7615 3.86907 21.6518 4.52545 22.3082C5.18183 22.9645 6.07207 23.3333 7.00033 23.3333C7.92858 23.3333 8.81882 22.9645 9.4752 22.3082C10.1316 21.6518 10.5003 20.7615 10.5003 19.8333H17.5003C17.5003 20.7615 17.8691 21.6518 18.5255 22.3082C19.1818 22.9645 20.0721 23.3333 21.0003 23.3333C21.9286 23.3333 22.8188 22.9645 23.4752 22.3082C24.1316 21.6518 24.5003 20.7615 24.5003 19.8333H26.8337V14L23.3337 9.33329Z" fill="#C0BFBF"/>
</svg>
