<svg width="28" height="28" viewBox="0 0 28 28" fill="none" xmlns="http://www.w3.org/2000/svg">
<path d="M9.33333 16.5572H10.3658V13.0572H9.33333V14.2915H7.58333V15.324H9.33333V16.5572ZM11.5325 15.324H20.4167V14.2915H11.5325V15.324ZM17.6342 12.6092H18.6667V11.3748H20.4167V10.3423H18.6667V9.11034H17.6342V12.6092ZM7.58333 11.3748H16.4687V10.3423H7.58333V11.3748ZM10.5 23.3332V20.9998H5.38533C4.84789 20.9998 4.3995 20.8202 4.04017 20.4608C3.68083 20.1015 3.50078 19.6527 3.5 19.1145V6.55184C3.5 6.01439 3.68006 5.566 4.04017 5.20667C4.40028 4.84734 4.84828 4.66728 5.38417 4.6665H22.6158C23.1525 4.6665 23.6005 4.84656 23.9598 5.20667C24.3192 5.56678 24.4992 6.01517 24.5 6.55184V19.1157C24.5 19.6523 24.3199 20.1007 23.9598 20.4608C23.5997 20.8209 23.1517 21.0006 22.6158 20.9998H17.5V23.3332H10.5Z" fill="#C0BFBF"/>
</svg>
