<svg width="28" height="28" viewBox="0 0 28 28" fill="none" xmlns="http://www.w3.org/2000/svg">
<path fill-rule="evenodd" clip-rule="evenodd" d="M24.8125 24.5618L3.18715 24.5629C2.98235 24.5629 2.78117 24.509 2.60382 24.4066C2.42647 24.3042 2.2792 24.157 2.1768 23.9796C2.07441 23.8022 2.02051 23.6011 2.02051 23.3963C2.02051 23.1915 2.07442 22.9903 2.17681 22.8129L12.9871 4.08328C13.0895 3.90594 13.2368 3.75868 13.4142 3.65629C13.5915 3.5539 13.7927 3.5 13.9975 3.5C14.2023 3.5 14.4034 3.5539 14.5808 3.65629C14.7581 3.75868 14.9054 3.90594 15.0078 4.08328L25.8228 22.8118C25.9252 22.9891 25.9791 23.1903 25.9791 23.3951C25.9791 23.5999 25.9252 23.8011 25.8228 23.9784C25.7204 24.1558 25.5732 24.3031 25.3958 24.4055C25.2185 24.5079 25.0173 24.5618 24.8125 24.5618ZM13.1225 11.1358L13.2578 17.7461H14.7418L14.8783 11.1358H13.1225ZM13.9975 21.1364C14.5575 21.1364 14.995 20.7059 14.995 20.1658C14.995 19.6256 14.5575 19.2021 13.9963 19.2021C13.8676 19.199 13.7395 19.2216 13.6197 19.2686C13.4998 19.3156 13.3905 19.386 13.2981 19.4757C13.2058 19.5655 13.1323 19.6727 13.0819 19.7912C13.0315 19.9097 13.0052 20.037 13.0046 20.1658C13.0046 20.7059 13.4421 21.1364 13.9963 21.1364H13.9975Z" fill="#C0BFBF"/>
</svg>
