<svg width="28" height="28" viewBox="0 0 28 28" fill="none" xmlns="http://www.w3.org/2000/svg">
<path d="M1.16699 22.1666V18.6666C1.16699 18.0055 1.39566 17.4513 1.85299 17.0041C2.31033 16.5569 2.85944 16.3333 3.50033 16.3333H7.32116C7.71005 16.3333 8.07949 16.4305 8.42949 16.625C8.77949 16.8194 9.06144 17.0819 9.27532 17.4125C9.83921 18.1708 10.5345 18.7638 11.3613 19.1916C12.1881 19.6194 13.0678 19.8333 14.0003 19.8333C14.9531 19.8333 15.8429 19.6194 16.6697 19.1916C17.4964 18.7638 18.1817 18.1708 18.7253 17.4125C18.9781 17.0819 19.2748 16.8194 19.6155 16.625C19.9562 16.4305 20.3108 16.3333 20.6795 16.3333H24.5003C25.1614 16.3333 25.7156 16.5569 26.1628 17.0041C26.61 17.4513 26.8337 18.0055 26.8337 18.6666V22.1666C26.8337 22.4972 26.7217 22.7745 26.4977 22.9985C26.2737 23.2225 25.9968 23.3341 25.667 23.3333H19.8337C19.5031 23.3333 19.2262 23.2213 19.003 22.9973C18.7798 22.7733 18.6678 22.4964 18.667 22.1666V20.6791C17.9864 21.1652 17.2522 21.5347 16.4643 21.7875C15.6764 22.0402 14.8551 22.1666 14.0003 22.1666C13.1642 22.1666 12.3475 22.0356 11.5503 21.7735C10.7531 21.5113 10.0142 21.1368 9.33366 20.65V22.1666C9.33366 22.4972 9.22166 22.7745 8.99766 22.9985C8.77366 23.2225 8.49677 23.3341 8.16699 23.3333H2.33366C2.0031 23.3333 1.72621 23.2213 1.50299 22.9973C1.27977 22.7733 1.16777 22.4964 1.16699 22.1666ZM14.0003 18.6666C13.2614 18.6666 12.5614 18.4967 11.9003 18.1568C11.2392 17.8169 10.685 17.3452 10.2378 16.7416C9.90727 16.2555 9.49427 15.8717 8.99883 15.5901C8.50338 15.3086 7.9636 15.1674 7.37949 15.1666C7.80727 14.4472 8.71144 13.8782 10.092 13.4598C11.4725 13.0413 12.7753 12.8325 14.0003 12.8333C15.2253 12.8341 16.5281 13.0433 17.9087 13.461C19.2892 13.8786 20.1934 14.4472 20.6212 15.1666C20.0573 15.1666 19.5225 15.3078 19.017 15.5901C18.5114 15.8725 18.0934 16.2563 17.7628 16.7416C17.335 17.3638 16.7906 17.8402 16.1295 18.1708C15.4684 18.5013 14.7587 18.6666 14.0003 18.6666ZM4.66699 15.1666C3.69477 15.1666 2.86838 14.8263 2.18783 14.1458C1.50727 13.4652 1.16699 12.6388 1.16699 11.6666C1.16699 10.675 1.50727 9.8439 2.18783 9.17346C2.86838 8.50301 3.69477 8.1674 4.66699 8.16663C5.65866 8.16663 6.4901 8.50224 7.16133 9.17346C7.83255 9.84468 8.16777 10.6757 8.16699 11.6666C8.16699 12.6388 7.83177 13.4652 7.16133 14.1458C6.49088 14.8263 5.65944 15.1666 4.66699 15.1666ZM23.3337 15.1666C22.3614 15.1666 21.535 14.8263 20.8545 14.1458C20.1739 13.4652 19.8337 12.6388 19.8337 11.6666C19.8337 10.675 20.1739 9.8439 20.8545 9.17346C21.535 8.50301 22.3614 8.1674 23.3337 8.16663C24.3253 8.16663 25.1568 8.50224 25.828 9.17346C26.4992 9.84468 26.8344 10.6757 26.8337 11.6666C26.8337 12.6388 26.4984 13.4652 25.828 14.1458C25.1575 14.8263 24.3261 15.1666 23.3337 15.1666ZM14.0003 11.6666C13.0281 11.6666 12.2017 11.3263 11.5212 10.6458C10.8406 9.96524 10.5003 9.13885 10.5003 8.16663C10.5003 7.17496 10.8406 6.3439 11.5212 5.67346C12.2017 5.00301 13.0281 4.6674 14.0003 4.66663C14.992 4.66663 15.8234 5.00224 16.4947 5.67346C17.1659 6.34468 17.5011 7.17574 17.5003 8.16663C17.5003 9.13885 17.1651 9.96524 16.4947 10.6458C15.8242 11.3263 14.9928 11.6666 14.0003 11.6666Z" fill="#C0BFBF"/>
</svg>
