<svg width="28" height="28" viewBox="0 0 28 28" fill="none" xmlns="http://www.w3.org/2000/svg">
<path d="M4.66634 23.3337C4.02467 23.3337 3.47556 23.1054 3.01901 22.6488C2.56245 22.1923 2.33379 21.6428 2.33301 21.0003V7.00033C2.33301 6.35866 2.56167 5.80955 3.01901 5.35299C3.47634 4.89644 4.02545 4.66777 4.66634 4.66699H23.333C23.9747 4.66699 24.5242 4.89566 24.9815 5.35299C25.4388 5.81033 25.6671 6.35944 25.6663 7.00033V21.0003C25.6663 21.642 25.4381 22.1915 24.9815 22.6488C24.525 23.1062 23.9755 23.3344 23.333 23.3337H4.66634ZM13.9997 14.9628C14.0969 14.9628 14.1992 14.948 14.3065 14.9185C14.4138 14.8889 14.5157 14.8454 14.6122 14.7878L22.8663 9.62533C23.0219 9.5281 23.1386 9.40677 23.2163 9.26133C23.2941 9.11588 23.333 8.95527 23.333 8.77949C23.333 8.3906 23.1677 8.09894 22.8372 7.90449C22.5066 7.71005 22.1663 7.71977 21.8163 7.93366L13.9997 12.8337L6.18301 7.93366C5.83301 7.71977 5.49273 7.7151 5.16217 7.91966C4.83162 8.12421 4.66634 8.41083 4.66634 8.77949C4.66634 8.97394 4.70523 9.14427 4.78301 9.29049C4.86079 9.43671 4.97745 9.54833 5.13301 9.62533L13.3872 14.7878C13.4844 14.8462 13.5867 14.8901 13.694 14.9197C13.8013 14.9492 13.9032 14.9636 13.9997 14.9628Z" fill="#C0BFBF"/>
</svg>
