<svg width="28" height="25" viewBox="0 0 28 25" fill="none" xmlns="http://www.w3.org/2000/svg">
<path d="M26.4932 5.74707C26.673 5.13672 26.4932 4.6875 25.6279 4.6875H22.7647C22.0355 4.6875 21.7001 5.07324 21.5203 5.50293C21.5203 5.50293 20.0619 9.07227 18.0008 11.3867C17.3349 12.0557 17.0286 12.2705 16.664 12.2705C16.4842 12.2705 16.2071 12.0557 16.2071 11.4453V5.74707C16.2071 5.01465 16.0029 4.6875 15.4001 4.6875H10.8987C10.4418 4.6875 10.1696 5.0293 10.1696 5.34668C10.1696 6.04004 11.2001 6.20117 11.3071 8.1543V12.3926C11.3071 13.3203 11.1418 13.4912 10.7772 13.4912C9.80499 13.4912 7.44249 9.90723 6.04249 5.80566C5.76055 5.00977 5.48346 4.6875 4.74944 4.6875H1.88624C1.06957 4.6875 0.904297 5.07324 0.904297 5.50293C0.904297 6.26465 1.87652 10.0488 5.42999 15.0488C7.79735 18.4619 11.1321 20.3125 14.1654 20.3125C15.9883 20.3125 16.2119 19.9023 16.2119 19.1943C16.2119 15.9326 16.0467 15.625 16.9605 15.625C17.3835 15.625 18.1126 15.8398 19.814 17.4854C21.7585 19.4385 22.0793 20.3125 23.1682 20.3125H26.0314C26.848 20.3125 27.2612 19.9023 27.0231 19.0918C26.4786 17.3877 22.7987 13.8818 22.6335 13.6475C22.2105 13.1006 22.3321 12.8564 22.6335 12.3682C22.6383 12.3633 26.1335 7.42187 26.4932 5.74707Z" fill="#C0BFBF"/>
</svg>
